<svg version="1.1" viewBox="0.0 0.0 600.0 371.0" fill="none" stroke="none" stroke-linecap="square" stroke-miterlimit="10" width="600" height="371" xmlns:xlink="http://www.w3.org/1999/xlink" xmlns="http://www.w3.org/2000/svg"><path fill="#ffffff" d="M0 0L600.0 0L600.0 371.0L0 371.0L0 0Z" fill-rule="nonzero"/><path stroke="#cccccc" stroke-width="1.0" stroke-linecap="butt" d="M106.5 298.5L581.5 298.5" fill-rule="nonzero"/><path stroke="#cccccc" stroke-width="1.0" stroke-linecap="butt" d="M106.5 273.5L581.5 273.5" fill-rule="nonzero"/><path stroke="#cccccc" stroke-width="1.0" stroke-linecap="butt" d="M106.5 215.5L581.5 215.5" fill-rule="nonzero"/><path stroke="#cccccc" stroke-width="1.0" stroke-linecap="butt" d="M106.5 189.5L581.5 189.5" fill-rule="nonzero"/><path stroke="#cccccc" stroke-width="1.0" stroke-linecap="butt" d="M106.5 131.5L581.5 131.5" fill-rule="nonzero"/><path stroke="#cccccc" stroke-width="1.0" stroke-linecap="butt" d="M106.5 106.5L581.5 106.5" fill-rule="nonzero"/><clipPath id="id_0"><path d="M106.55 62.416668L581.45 62.416668L581.45 298.45L106.55 298.45L106.55 62.416668Z" clip-rule="nonzero"/></clipPath><path stroke="#000000" stroke-width="2.0" stroke-linecap="butt" stroke-opacity="0.0" clip-path="url(#id_0)" d="M195.0 298.0L137.0 298.0L137.0 64.0C137.0 62.89543 137.89543 62.0 139.0 62.0L193.0 62.0C194.10457 62.0 195.0 62.89543 195.0 64.0Z" fill-rule="nonzero"/><path fill="#4285f4" clip-path="url(#id_0)" d="M195.0 298.0L137.0 298.0L137.0 64.0C137.0 62.89543 137.89543 62.0 139.0 62.0L193.0 62.0C194.10457 62.0 195.0 62.89543 195.0 64.0Z" fill-rule="nonzero"/><path stroke="#000000" stroke-width="2.0" stroke-linecap="butt" stroke-opacity="0.0" clip-path="url(#id_0)" d="M284.0 298.0L226.0 298.0L226.0 152.0C226.0 150.89543 226.89543 150.0 228.0 150.0L282.0 150.0C283.10458 150.0 284.0 150.89543 284.0 152.0Z" fill-rule="nonzero"/><path fill="#4285f4" clip-path="url(#id_0)" d="M284.0 298.0L226.0 298.0L226.0 152.0C226.0 150.89543 226.89543 150.0 228.0 150.0L282.0 150.0C283.10458 150.0 284.0 150.89543 284.0 152.0Z" fill-rule="nonzero"/><path stroke="#000000" stroke-width="2.0" stroke-linecap="butt" stroke-opacity="0.0" clip-path="url(#id_0)" d="M373.0 298.0L315.0 298.0L315.0 185.0C315.0 183.89543 315.89542 183.0 317.0 183.0L371.0 183.0C372.10458 183.0 373.0 183.89543 373.0 185.0Z" fill-rule="nonzero"/><path fill="#4285f4" clip-path="url(#id_0)" d="M373.0 298.0L315.0 298.0L315.0 185.0C315.0 183.89543 315.89542 183.0 317.0 183.0L371.0 183.0C372.10458 183.0 373.0 183.89543 373.0 185.0Z" fill-rule="nonzero"/><path stroke="#000000" stroke-width="2.0" stroke-linecap="butt" stroke-opacity="0.0" clip-path="url(#id_0)" d="M462.0 298.0L404.0 298.0L404.0 241.0C404.0 239.89543 404.89542 239.0 406.0 239.0L460.0 239.0C461.10458 239.0 462.0 239.89543 462.0 241.0Z" fill-rule="nonzero"/><path fill="#4285f4" clip-path="url(#id_0)" d="M462.0 298.0L404.0 298.0L404.0 241.0C404.0 239.89543 404.89542 239.0 406.0 239.0L460.0 239.0C461.10458 239.0 462.0 239.89543 462.0 241.0Z" fill-rule="nonzero"/><path stroke="#000000" stroke-width="2.0" stroke-linecap="butt" stroke-opacity="0.0" clip-path="url(#id_0)" d="M551.0 298.0L493.0 298.0L493.0 284.0C493.0 282.89542 493.89542 282.0 495.0 282.0L549.0 282.0C550.10455 282.0 551.0 282.89542 551.0 284.0Z" fill-rule="nonzero"/><path fill="#4285f4" clip-path="url(#id_0)" d="M551.0 298.0L493.0 298.0L493.0 284.0C493.0 282.89542 493.89542 282.0 495.0 282.0L549.0 282.0C550.10455 282.0 551.0 282.89542 551.0 284.0Z" fill-rule="nonzero"/><path fill="#424242" d="M314.0 345.65314Q312.5625 345.23126 311.89062 344.6219Q311.23438 344.0125 311.23438 343.1219Q311.23438 342.1219 312.03125 341.46564Q312.84375 340.79376 314.14062 340.79376Q315.01562 340.79376 315.70312 341.1375Q316.39062 341.48126 316.76562 342.075Q317.15625 342.66876 317.15625 343.3875L316.01562 343.3875Q316.01562 342.60626 315.51562 342.16876Q315.03125 341.73126 314.14062 341.73126Q313.3125 341.73126 312.84375 342.10626Q312.375 342.46564 312.375 343.10626Q312.375 343.6375 312.8125 343.9969Q313.26562 344.35626 314.32812 344.65314Q315.39062 344.95 315.98438 345.3094Q316.59375 345.66876 316.875 346.15314Q317.17188 346.6375 317.17188 347.27814Q317.17188 348.325 316.35938 348.95Q315.54688 349.575 314.20312 349.575Q313.3125 349.575 312.54688 349.23126Q311.79688 348.8875 311.375 348.3094Q310.96875 347.71564 310.96875 346.98126L312.09375 346.98126Q312.09375 347.7469 312.67188 348.2Q313.25 348.65314 314.20312 348.65314Q315.09375 348.65314 315.5625 348.29376Q316.03125 347.91876 316.03125 347.29376Q316.03125 346.66876 315.59375 346.325Q315.15625 345.98126 314.0 345.65314ZM320.85938 348.6844Q321.4375 348.6844 321.875 348.34064Q322.3125 347.98126 322.35938 347.45L323.39062 347.45Q323.35938 347.9969 323.0 348.4969Q322.65625 348.98126 322.07812 349.27814Q321.51562 349.575 320.85938 349.575Q319.5625 349.575 318.79688 348.71564Q318.04688 347.84064 318.04688 346.34064L318.04688 346.15314Q318.04688 345.23126 318.375 344.5125Q318.71875 343.79376 319.34375 343.40314Q319.98438 342.9969 320.85938 342.9969Q321.92188 342.9969 322.625 343.6375Q323.34375 344.2625 323.39062 345.29376L322.35938 345.29376Q322.3125 344.66876 321.89062 344.27814Q321.46875 343.8875 320.85938 343.8875Q320.03125 343.8875 319.57812 344.48126Q319.125 345.075 319.125 346.2L319.125 346.40314Q319.125 347.4969 319.57812 348.09064Q320.03125 348.6844 320.85938 348.6844ZM324.03125 346.21564Q324.03125 345.29376 324.39062 344.54376Q324.76562 343.79376 325.42188 343.40314Q326.07812 342.9969 326.90625 342.9969Q328.20312 342.9969 329.0 343.8875Q329.8125 344.77814 329.8125 346.27814L329.8125 346.35626Q329.8125 347.27814 329.45312 348.0125Q329.09375 348.7469 328.4375 349.16876Q327.78125 349.575 326.92188 349.575Q325.64062 349.575 324.82812 348.6844Q324.03125 347.77814 324.03125 346.29376L324.03125 346.21564ZM325.125 346.35626Q325.125 347.40314 325.60938 348.04376Q326.10938 348.6844 326.92188 348.6844Q327.75 348.6844 328.23438 348.04376Q328.71875 347.3875 328.71875 346.21564Q328.71875 345.1844 328.21875 344.54376Q327.73438 343.8875 326.90625 343.8875Q326.10938 343.8875 325.60938 344.52814Q325.125 345.15314 325.125 346.35626ZM334.39062 344.075Q334.14062 344.04376 333.85938 344.04376Q332.78125 344.04376 332.40625 344.95L332.40625 349.45L331.32812 349.45L331.32812 343.10626L332.375 343.10626L332.39062 343.84064Q332.92188 342.9969 333.90625 342.9969Q334.21875 342.9969 334.39062 343.075L334.39062 344.075ZM337.95312 349.575Q336.65625 349.575 335.84375 348.73126Q335.04688 347.8719 335.04688 346.45L335.04688 346.2625Q335.04688 345.3094 335.40625 344.575Q335.76562 343.825 336.40625 343.41876Q337.0625 342.9969 337.8125 342.9969Q339.04688 342.9969 339.73438 343.8094Q340.42188 344.6219 340.42188 346.1375L340.42188 346.59064L336.125 346.59064Q336.15625 347.52814 336.67188 348.10626Q337.20312 348.6844 338.01562 348.6844Q338.57812 348.6844 338.96875 348.45Q339.375 348.21564 339.6875 347.825L340.34375 348.34064Q339.54688 349.575 337.95312 349.575ZM337.8125 343.8875Q337.15625 343.8875 336.70312 344.3719Q336.26562 344.84064 336.17188 345.7L339.34375 345.7L339.34375 345.6219Q339.29688 344.79376 338.89062 344.34064Q338.5 343.8875 337.8125 343.8875ZM347.625 345.9969L345.60938 345.9969L345.60938 349.45L344.48438 349.45L344.48438 340.91876L347.3125 340.91876Q348.75 340.91876 349.51562 341.575Q350.29688 342.23126 350.29688 343.48126Q350.29688 344.27814 349.85938 344.8719Q349.4375 345.46564 348.67188 345.7625L350.67188 349.3719L350.67188 349.45L349.46875 349.45L347.625 345.9969ZM345.60938 345.075L347.34375 345.075Q348.1875 345.075 348.67188 344.65314Q349.17188 344.21564 349.17188 343.48126Q349.17188 342.7 348.70312 342.27814Q348.23438 341.85626 347.34375 341.84064L345.60938 341.84064L345.60938 345.075ZM355.23438 349.45Q355.14062 349.2625 355.07812 348.77814Q354.32812 349.575 353.28125 349.575Q352.34375 349.575 351.73438 349.04376Q351.14062 348.5125 351.14062 347.6844Q351.14062 346.7 351.89062 346.15314Q352.64062 345.60626 354.01562 345.60626L355.0625 345.60626L355.0625 345.10626Q355.0625 344.54376 354.71875 344.21564Q354.39062 343.8719 353.71875 343.8719Q353.14062 343.8719 352.75 344.16876Q352.35938 344.45 352.35938 344.8719L351.26562 344.8719Q351.26562 344.3875 351.59375 343.95Q351.9375 343.5125 352.51562 343.2625Q353.09375 342.9969 353.78125 342.9969Q354.89062 342.9969 355.5 343.54376Q356.125 344.09064 356.15625 345.04376L356.15625 347.96564Q356.15625 348.84064 356.375 349.35626L356.375 349.45L355.23438 349.45ZM353.4375 348.6219Q353.95312 348.6219 354.40625 348.35626Q354.85938 348.09064 355.0625 347.66876L355.0625 346.3719L354.21875 346.3719Q352.21875 346.3719 352.21875 347.54376Q352.21875 348.04376 352.5625 348.34064Q352.90625 348.6219 353.4375 348.6219ZM359.34375 343.10626L359.375 343.90314Q360.10938 342.9969 361.28125 342.9969Q363.29688 342.9969 363.3125 345.2625L363.3125 349.45L362.21875 349.45L362.21875 345.2469Q362.21875 344.575 361.90625 344.2469Q361.60938 343.91876 360.95312 343.91876Q360.42188 343.91876 360.01562 344.2Q359.625 344.48126 359.40625 344.9344L359.40625 349.45L358.32812 349.45L358.32812 343.10626L359.34375 343.10626ZM365.0625 346.23126Q365.0625 344.7469 365.75 343.8719Q366.4375 342.9969 367.5625 342.9969Q368.71875 342.9969 369.375 343.8094L369.42188 343.10626L370.42188 343.10626L370.42188 349.29376Q370.42188 350.52814 369.6875 351.23126Q368.95312 351.95 367.73438 351.95Q367.04688 351.95 366.39062 351.65314Q365.73438 351.35626 365.39062 350.85626L365.95312 350.2Q366.64062 351.0594 367.65625 351.0594Q368.4375 351.0594 368.875 350.60626Q369.32812 350.16876 369.32812 349.35626L369.32812 348.8094Q368.67188 349.575 367.54688 349.575Q366.4375 349.575 365.75 348.6844Q365.0625 347.77814 365.0625 346.23126ZM366.15625 346.35626Q366.15625 347.41876 366.59375 348.04376Q367.03125 348.65314 367.82812 348.65314Q368.84375 348.65314 369.32812 347.71564L369.32812 344.825Q368.82812 343.91876 367.82812 343.91876Q367.04688 343.91876 366.59375 344.52814Q366.15625 345.1375 366.15625 346.35626ZM374.95312 349.575Q373.65625 349.575 372.84375 348.73126Q372.04688 347.8719 372.04688 346.45L372.04688 346.2625Q372.04688 345.3094 372.40625 344.575Q372.76562 343.825 373.40625 343.41876Q374.0625 342.9969 374.8125 342.9969Q376.04688 342.9969 376.73438 343.8094Q377.42188 344.6219 377.42188 346.1375L377.42188 346.59064L373.125 346.59064Q373.15625 347.52814 373.67188 348.10626Q374.20312 348.6844 375.01562 348.6844Q375.57812 348.6844 375.96875 348.45Q376.375 348.21564 376.6875 347.825L377.34375 348.34064Q376.54688 349.575 374.95312 349.575ZM374.8125 343.8875Q374.15625 343.8875 373.70312 344.3719Q373.26562 344.84064 373.17188 345.7L376.34375 345.7L376.34375 345.6219Q376.29688 344.79376 375.89062 344.34064Q375.5 343.8875 374.8125 343.8875Z" fill-rule="nonzero"/><path fill="#424242" d="M27.846888 196.41771Q29.190638 196.57396 29.940638 197.41771Q30.675013 198.26146 30.675013 199.65208Q30.675013 201.16771 29.596888 202.07396Q28.503138 202.98021 26.675013 202.98021L25.862513 202.98021Q24.675013 202.98021 23.768763 202.55833Q22.862513 202.13646 22.378138 201.35521Q21.893763 200.57396 21.893763 199.55833Q21.893763 198.19896 22.659388 197.38646Q23.425013 196.55833 24.753138 196.41771L24.753138 197.54271Q23.737513 197.69896 23.284388 198.18333Q22.831263 198.66771 22.831263 199.55833Q22.831263 200.63646 23.628138 201.24583Q24.425013 201.85521 25.893763 201.85521L26.721888 201.85521Q28.112513 201.85521 28.940638 201.27708Q29.753138 200.69896 29.753138 199.65208Q29.753138 198.71458 29.331263 198.21458Q28.893763 197.71458 27.846888 197.54271L27.846888 196.41771ZM27.315638 195.15208Q26.393763 195.15208 25.643763 194.79271Q24.893763 194.41771 24.503138 193.76146Q24.096888 193.10521 24.096888 192.27708Q24.096888 190.98021 24.987513 190.18333Q25.878138 189.37083 27.378138 189.37083L27.456263 189.37083Q28.378138 189.37083 29.112513 189.73021Q29.846888 190.08958 30.268763 190.74583Q30.675013 191.40208 30.675013 192.26146Q30.675013 193.54271 29.784388 194.35521Q28.878138 195.15208 27.393763 195.15208L27.315638 195.15208ZM27.456263 194.05833Q28.503138 194.05833 29.143763 193.57396Q29.784388 193.07396 29.784388 192.26146Q29.784388 191.43333 29.143763 190.94896Q28.487513 190.46458 27.315638 190.46458Q26.284388 190.46458 25.643763 190.96458Q24.987513 191.44896 24.987513 192.27708Q24.987513 193.07396 25.628138 193.57396Q26.253138 194.05833 27.456263 194.05833ZM29.925013 183.94896Q30.675013 184.57396 30.675013 185.80833Q30.675013 186.82396 30.081263 187.35521Q29.487513 187.88646 28.331263 187.88646L24.206263 187.88646L24.206263 186.80833L28.300013 186.80833Q29.753138 186.80833 29.753138 185.63646Q29.753138 184.38646 28.815638 183.98021L24.206263 183.98021L24.206263 182.88646L30.550013 182.88646L30.550013 183.91771L29.925013 183.94896ZM24.206263 179.83958L25.003138 179.80833Q24.096888 179.07396 24.096888 177.90208Q24.096888 175.88646 26.362513 175.87083L30.550013 175.87083L30.550013 176.96458L26.346888 176.96458Q25.675013 176.96458 25.346888 177.27708Q25.018763 177.57396 25.018763 178.23021Q25.018763 178.76146 25.300013 179.16771Q25.581263 179.55833 26.034388 179.77708L30.550013 179.77708L30.550013 180.85521L24.206263 180.85521L24.206263 179.83958ZM22.675013 172.38646L24.206263 172.38646L24.206263 171.21458L25.050013 171.21458L25.050013 172.38646L28.971888 172.38646Q29.362513 172.38646 29.550013 172.23021Q29.737513 172.07396 29.737513 171.69896Q29.737513 171.51146 29.675013 171.18333L30.550013 171.18333Q30.675013 171.60521 30.675013 172.01146Q30.675013 172.73021 30.237513 173.10521Q29.784388 173.48021 28.971888 173.48021L25.050013 173.48021L25.050013 174.63646L24.206263 174.63646L24.206263 173.48021L22.675013 173.48021L22.675013 172.38646Z" fill-rule="nonzero"/><path fill="#757575" d="M73.75313 298.66876L74.19063 294.41876L78.56563 294.41876L78.56563 295.41876L75.1125 295.41876L74.84688 297.7469Q75.4875 297.3719 76.28438 297.3719Q77.44063 297.3719 78.12813 298.15314Q78.81563 298.91876 78.81563 300.23126Q78.81563 301.54376 78.09688 302.3094Q77.39375 303.075 76.1125 303.075Q74.9875 303.075 74.26875 302.45Q73.55 301.8094 73.45625 300.7L74.47188 300.7Q74.58125 301.4344 75.00313 301.8094Q75.425 302.1844 76.1125 302.1844Q76.8625 302.1844 77.3 301.66876Q77.7375 301.15314 77.7375 300.2469Q77.7375 299.3875 77.26875 298.8719Q76.8 298.35626 76.01875 298.35626Q75.31563 298.35626 74.90938 298.65314L74.62813 298.8875L73.75313 298.66876ZM85.6125 299.3094Q85.6125 301.21564 84.95625 302.15314Q84.31563 303.075 82.925 303.075Q81.56563 303.075 80.90938 302.16876Q80.25313 301.2625 80.22188 299.45L80.22188 298.0125Q80.22188 296.1219 80.8625 295.21564Q81.51875 294.29376 82.90938 294.29376Q84.28438 294.29376 84.94063 295.1844Q85.59688 296.0594 85.6125 297.90314L85.6125 299.3094ZM84.51875 297.825Q84.51875 296.45 84.12813 295.825Q83.75313 295.1844 82.90938 295.1844Q82.08125 295.1844 81.69063 295.825Q81.31563 296.45 81.31563 297.7469L81.31563 299.48126Q81.31563 300.85626 81.70625 301.52814Q82.1125 302.1844 82.925 302.1844Q83.72188 302.1844 84.1125 301.5594Q84.50313 300.9344 84.51875 299.60626L84.51875 297.825ZM92.6125 299.3094Q92.6125 301.21564 91.95625 302.15314Q91.31563 303.075 89.925 303.075Q88.56563 303.075 87.90938 302.16876Q87.25313 301.2625 87.22188 299.45L87.22188 298.0125Q87.22188 296.1219 87.8625 295.21564Q88.51875 294.29376 89.90938 294.29376Q91.28438 294.29376 91.94063 295.1844Q92.59688 296.0594 92.6125 297.90314L92.6125 299.3094ZM91.51875 297.825Q91.51875 296.45 91.12813 295.825Q90.75313 295.1844 89.90938 295.1844Q89.08125 295.1844 88.69063 295.825Q88.31563 296.45 88.31563 297.7469L88.31563 299.48126Q88.31563 300.85626 88.70625 301.52814Q89.1125 302.1844 89.925 302.1844Q90.72188 302.1844 91.1125 301.5594Q91.50313 300.9344 91.51875 299.60626L91.51875 297.825ZM99.6125 299.3094Q99.6125 301.21564 98.95625 302.15314Q98.31563 303.075 96.925 303.075Q95.56563 303.075 94.90938 302.16876Q94.25313 301.2625 94.22188 299.45L94.22188 298.0125Q94.22188 296.1219 94.8625 295.21564Q95.51875 294.29376 96.90938 294.29376Q98.28438 294.29376 98.94063 295.1844Q99.59688 296.0594 99.6125 297.90314L99.6125 299.3094ZM98.51875 297.825Q98.51875 296.45 98.12813 295.825Q97.75313 295.1844 96.90938 295.1844Q96.08125 295.1844 95.69063 295.825Q95.31563 296.45 95.31563 297.7469L95.31563 299.48126Q95.31563 300.85626 95.70625 301.52814Q96.1125 302.1844 96.925 302.1844Q97.72188 302.1844 98.1125 301.5594Q98.50313 300.9344 98.51875 299.60626L98.51875 297.825Z" fill-rule="nonzero"/><path fill="#757575" d="M69.81563 277.8446L68.7375 277.8446L68.7375 270.62585L66.55 271.42273L66.55 270.43835L69.65938 269.26648L69.81563 269.26648L69.81563 277.8446ZM78.6125 274.20398Q78.6125 276.11023 77.95625 277.04773Q77.31563 277.9696 75.925 277.9696Q74.56563 277.9696 73.90938 277.06335Q73.25313 276.1571 73.22188 274.3446L73.22188 272.9071Q73.22188 271.01648 73.8625 270.11023Q74.51875 269.18835 75.90938 269.18835Q77.28438 269.18835 77.94063 270.07898Q78.59688 270.95398 78.6125 272.79773L78.6125 274.20398ZM77.51875 272.7196Q77.51875 271.3446 77.12813 270.7196Q76.75313 270.07898 75.90938 270.07898Q75.08125 270.07898 74.69063 270.7196Q74.31563 271.3446 74.31563 272.64148L74.31563 274.37585Q74.31563 275.75085 74.70625 276.42273Q75.1125 277.07898 75.925 277.07898Q76.72188 277.07898 77.1125 276.45398Q77.50313 275.82898 77.51875 274.50085L77.51875 272.7196ZM85.6125 274.20398Q85.6125 276.11023 84.95625 277.04773Q84.31563 277.9696 82.925 277.9696Q81.56563 277.9696 80.90938 277.06335Q80.25313 276.1571 80.22188 274.3446L80.22188 272.9071Q80.22188 271.01648 80.8625 270.11023Q81.51875 269.18835 82.90938 269.18835Q84.28438 269.18835 84.94063 270.07898Q85.59688 270.95398 85.6125 272.79773L85.6125 274.20398ZM84.51875 272.7196Q84.51875 271.3446 84.12813 270.7196Q83.75313 270.07898 82.90938 270.07898Q82.08125 270.07898 81.69063 270.7196Q81.31563 271.3446 81.31563 272.64148L81.31563 274.37585Q81.31563 275.75085 81.70625 276.42273Q82.1125 277.07898 82.925 277.07898Q83.72188 277.07898 84.1125 276.45398Q84.50313 275.82898 84.51875 274.50085L84.51875 272.7196ZM92.6125 274.20398Q92.6125 276.11023 91.95625 277.04773Q91.31563 277.9696 89.925 277.9696Q88.56563 277.9696 87.90938 277.06335Q87.25313 276.1571 87.22188 274.3446L87.22188 272.9071Q87.22188 271.01648 87.8625 270.11023Q88.51875 269.18835 89.90938 269.18835Q91.28438 269.18835 91.94063 270.07898Q92.59688 270.95398 92.6125 272.79773L92.6125 274.20398ZM91.51875 272.7196Q91.51875 271.3446 91.12813 270.7196Q90.75313 270.07898 89.90938 270.07898Q89.08125 270.07898 88.69063 270.7196Q88.31563 271.3446 88.31563 272.64148L88.31563 274.37585Q88.31563 275.75085 88.70625 276.42273Q89.1125 277.07898 89.925 277.07898Q90.72188 277.07898 91.1125 276.45398Q91.50313 275.82898 91.51875 274.50085L91.51875 272.7196ZM99.6125 274.20398Q99.6125 276.11023 98.95625 277.04773Q98.31563 277.9696 96.925 277.9696Q95.56563 277.9696 94.90938 277.06335Q94.25313 276.1571 94.22188 274.3446L94.22188 272.9071Q94.22188 271.01648 94.8625 270.11023Q95.51875 269.18835 96.90938 269.18835Q98.28438 269.18835 98.94063 270.07898Q99.59688 270.95398 99.6125 272.79773L99.6125 274.20398ZM98.51875 272.7196Q98.51875 271.3446 98.12813 270.7196Q97.75313 270.07898 96.90938 270.07898Q96.08125 270.07898 95.69063 270.7196Q95.31563 271.3446 95.31563 272.64148L95.31563 274.37585Q95.31563 275.75085 95.70625 276.42273Q96.1125 277.07898 96.925 277.07898Q97.72188 277.07898 98.1125 276.45398Q98.50313 275.82898 98.51875 274.50085L98.51875 272.7196Z" fill-rule="nonzero"/><path fill="#757575" d="M66.75313 215.27043L67.19063 211.02043L71.56563 211.02043L71.56563 212.02043L68.1125 212.02043L67.84688 214.34856Q68.4875 213.97356 69.28438 213.97356Q70.44063 213.97356 71.12813 214.7548Q71.81563 215.52043 71.81563 216.83293Q71.81563 218.14543 71.09688 218.91106Q70.39375 219.67668 69.1125 219.67668Q67.9875 219.67668 67.26875 219.05168Q66.55 218.41106 66.45625 217.30168L67.47188 217.30168Q67.58125 218.03606 68.00313 218.41106Q68.425 218.78606 69.1125 218.78606Q69.8625 218.78606 70.3 218.27043Q70.7375 217.7548 70.7375 216.84856Q70.7375 215.98918 70.26875 215.47356Q69.8 214.95793 69.01875 214.95793Q68.31563 214.95793 67.90938 215.2548L67.62813 215.48918L66.75313 215.27043ZM78.6125 215.91106Q78.6125 217.8173 77.95625 218.7548Q77.31563 219.67668 75.925 219.67668Q74.56563 219.67668 73.90938 218.77043Q73.25313 217.86418 73.22188 216.05168L73.22188 214.61418Q73.22188 212.72356 73.8625 211.8173Q74.51875 210.89543 75.90938 210.89543Q77.28438 210.89543 77.94063 211.78606Q78.59688 212.66106 78.6125 214.5048L78.6125 215.91106ZM77.51875 214.42668Q77.51875 213.05168 77.12813 212.42668Q76.75313 211.78606 75.90938 211.78606Q75.08125 211.78606 74.69063 212.42668Q74.31563 213.05168 74.31563 214.34856L74.31563 216.08293Q74.31563 217.45793 74.70625 218.1298Q75.1125 218.78606 75.925 218.78606Q76.72188 218.78606 77.1125 218.16106Q77.50313 217.53606 77.51875 216.20793L77.51875 214.42668ZM85.6125 215.91106Q85.6125 217.8173 84.95625 218.7548Q84.31563 219.67668 82.925 219.67668Q81.56563 219.67668 80.90938 218.77043Q80.25313 217.86418 80.22188 216.05168L80.22188 214.61418Q80.22188 212.72356 80.8625 211.8173Q81.51875 210.89543 82.90938 210.89543Q84.28438 210.89543 84.94063 211.78606Q85.59688 212.66106 85.6125 214.5048L85.6125 215.91106ZM84.51875 214.42668Q84.51875 213.05168 84.12813 212.42668Q83.75313 211.78606 82.90938 211.78606Q82.08125 211.78606 81.69063 212.42668Q81.31563 213.05168 81.31563 214.34856L81.31563 216.08293Q81.31563 217.45793 81.70625 218.1298Q82.1125 218.78606 82.925 218.78606Q83.72188 218.78606 84.1125 218.16106Q84.50313 217.53606 84.51875 216.20793L84.51875 214.42668ZM92.6125 215.91106Q92.6125 217.8173 91.95625 218.7548Q91.31563 219.67668 89.925 219.67668Q88.56563 219.67668 87.90938 218.77043Q87.25313 217.86418 87.22188 216.05168L87.22188 214.61418Q87.22188 212.72356 87.8625 211.8173Q88.51875 210.89543 89.90938 210.89543Q91.28438 210.89543 91.94063 211.78606Q92.59688 212.66106 92.6125 214.5048L92.6125 215.91106ZM91.51875 214.42668Q91.51875 213.05168 91.12813 212.42668Q90.75313 211.78606 89.90938 211.78606Q89.08125 211.78606 88.69063 212.42668Q88.31563 213.05168 88.31563 214.34856L88.31563 216.08293Q88.31563 217.45793 88.70625 218.1298Q89.1125 218.78606 89.925 218.78606Q90.72188 218.78606 91.1125 218.16106Q91.50313 217.53606 91.51875 216.20793L91.51875 214.42668ZM99.6125 215.91106Q99.6125 217.8173 98.95625 218.7548Q98.31563 219.67668 96.925 219.67668Q95.56563 219.67668 94.90938 218.77043Q94.25313 217.86418 94.22188 216.05168L94.22188 214.61418Q94.22188 212.72356 94.8625 211.8173Q95.51875 210.89543 96.90938 210.89543Q98.28438 210.89543 98.94063 211.78606Q99.59688 212.66106 99.6125 214.5048L99.6125 215.91106ZM98.51875 214.42668Q98.51875 213.05168 98.12813 212.42668Q97.75313 211.78606 96.90938 211.78606Q96.08125 211.78606 95.69063 212.42668Q95.31563 213.05168 95.31563 214.34856L95.31563 216.08293Q95.31563 217.45793 95.70625 218.1298Q96.1125 218.78606 96.925 218.78606Q97.72188 218.78606 98.1125 218.16106Q98.50313 217.53606 98.51875 216.20793L98.51875 214.42668Z" fill-rule="nonzero"/><path fill="#757575" d="M62.815624 194.44629L61.7375 194.44629L61.7375 187.22754L59.55 188.02441L59.55 187.04004L62.659374 185.86816L62.815624 185.86816L62.815624 194.44629ZM71.6125 190.80566Q71.6125 192.71191 70.95625 193.64941Q70.31563 194.57129 68.925 194.57129Q67.56563 194.57129 66.90938 193.66504Q66.25313 192.75879 66.22188 190.94629L66.22188 189.50879Q66.22188 187.61816 66.8625 186.71191Q67.51875 185.79004 68.90938 185.79004Q70.28438 185.79004 70.94063 186.68066Q71.59688 187.55566 71.6125 189.39941L71.6125 190.80566ZM70.51875 189.32129Q70.51875 187.94629 70.12813 187.32129Q69.75313 186.68066 68.90938 186.68066Q68.08125 186.68066 67.69063 187.32129Q67.31563 187.94629 67.31563 189.24316L67.31563 190.97754Q67.31563 192.35254 67.70625 193.02441Q68.1125 193.68066 68.925 193.68066Q69.72188 193.68066 70.1125 193.05566Q70.50313 192.43066 70.51875 191.10254L70.51875 189.32129ZM78.6125 190.80566Q78.6125 192.71191 77.95625 193.64941Q77.31563 194.57129 75.925 194.57129Q74.56563 194.57129 73.90938 193.66504Q73.25313 192.75879 73.22188 190.94629L73.22188 189.50879Q73.22188 187.61816 73.8625 186.71191Q74.51875 185.79004 75.90938 185.79004Q77.28438 185.79004 77.94063 186.68066Q78.59688 187.55566 78.6125 189.39941L78.6125 190.80566ZM77.51875 189.32129Q77.51875 187.94629 77.12813 187.32129Q76.75313 186.68066 75.90938 186.68066Q75.08125 186.68066 74.69063 187.32129Q74.31563 187.94629 74.31563 189.24316L74.31563 190.97754Q74.31563 192.35254 74.70625 193.02441Q75.1125 193.68066 75.925 193.68066Q76.72188 193.68066 77.1125 193.05566Q77.50313 192.43066 77.51875 191.10254L77.51875 189.32129ZM85.6125 190.80566Q85.6125 192.71191 84.95625 193.64941Q84.31563 194.57129 82.925 194.57129Q81.56563 194.57129 80.90938 193.66504Q80.25313 192.75879 80.22188 190.94629L80.22188 189.50879Q80.22188 187.61816 80.8625 186.71191Q81.51875 185.79004 82.90938 185.79004Q84.28438 185.79004 84.94063 186.68066Q85.59688 187.55566 85.6125 189.39941L85.6125 190.80566ZM84.51875 189.32129Q84.51875 187.94629 84.12813 187.32129Q83.75313 186.68066 82.90938 186.68066Q82.08125 186.68066 81.69063 187.32129Q81.31563 187.94629 81.31563 189.24316L81.31563 190.97754Q81.31563 192.35254 81.70625 193.02441Q82.1125 193.68066 82.925 193.68066Q83.72188 193.68066 84.1125 193.05566Q84.50313 192.43066 84.51875 191.10254L84.51875 189.32129ZM92.6125 190.80566Q92.6125 192.71191 91.95625 193.64941Q91.31563 194.57129 89.925 194.57129Q88.56563 194.57129 87.90938 193.66504Q87.25313 192.75879 87.22188 190.94629L87.22188 189.50879Q87.22188 187.61816 87.8625 186.71191Q88.51875 185.79004 89.90938 185.79004Q91.28438 185.79004 91.94063 186.68066Q92.59688 187.55566 92.6125 189.39941L92.6125 190.80566ZM91.51875 189.32129Q91.51875 187.94629 91.12813 187.32129Q90.75313 186.68066 89.90938 186.68066Q89.08125 186.68066 88.69063 187.32129Q88.31563 187.94629 88.31563 189.24316L88.31563 190.97754Q88.31563 192.35254 88.70625 193.02441Q89.1125 193.68066 89.925 193.68066Q90.72188 193.68066 91.1125 193.05566Q91.50313 192.43066 91.51875 191.10254L91.51875 189.32129ZM99.6125 190.80566Q99.6125 192.71191 98.95625 193.64941Q98.31563 194.57129 96.925 194.57129Q95.56563 194.57129 94.90938 193.66504Q94.25313 192.75879 94.22188 190.94629L94.22188 189.50879Q94.22188 187.61816 94.8625 186.71191Q95.51875 185.79004 96.90938 185.79004Q98.28438 185.79004 98.94063 186.68066Q99.59688 187.55566 99.6125 189.39941L99.6125 190.80566ZM98.51875 189.32129Q98.51875 187.94629 98.12813 187.32129Q97.75313 186.68066 96.90938 186.68066Q96.08125 186.68066 95.69063 187.32129Q95.31563 187.94629 95.31563 189.24316L95.31563 190.97754Q95.31563 192.35254 95.70625 193.02441Q96.1125 193.68066 96.925 193.68066Q97.72188 193.68066 98.1125 193.05566Q98.50313 192.43066 98.51875 191.10254L98.51875 189.32129Z" fill-rule="nonzero"/><path fill="#757575" d="M59.753124 131.87212L60.190624 127.622116L64.56563 127.622116L64.56563 128.62212L61.1125 128.62212L60.846874 130.95024Q61.4875 130.57524 62.284374 130.57524Q63.440624 130.57524 64.12813 131.35649Q64.81563 132.12212 64.81563 133.43462Q64.81563 134.74712 64.09688 135.51274Q63.39375 136.27837 62.1125 136.27837Q60.9875 136.27837 60.26875 135.65337Q59.55 135.01274 59.45625 133.90337L60.471874 133.90337Q60.58125 134.63774 61.003124 135.01274Q61.425 135.38774 62.1125 135.38774Q62.8625 135.38774 63.3 134.87212Q63.7375 134.35649 63.7375 133.45024Q63.7375 132.59087 63.26875 132.07524Q62.8 131.55962 62.01875 131.55962Q61.315624 131.55962 60.909374 131.85649L60.628124 132.09087L59.753124 131.87212ZM71.6125 132.51274Q71.6125 134.41899 70.95625 135.35649Q70.31563 136.27837 68.925 136.27837Q67.56563 136.27837 66.90938 135.37212Q66.25313 134.46587 66.22188 132.65337L66.22188 131.21587Q66.22188 129.32524 66.8625 128.41899Q67.51875 127.497116 68.90938 127.497116Q70.28438 127.497116 70.94063 128.38774Q71.59688 129.26274 71.6125 131.10649L71.6125 132.51274ZM70.51875 131.02837Q70.51875 129.65337 70.12813 129.02837Q69.75313 128.38774 68.90938 128.38774Q68.08125 128.38774 67.69063 129.02837Q67.31563 129.65337 67.31563 130.95024L67.31563 132.68462Q67.31563 134.05962 67.70625 134.73149Q68.1125 135.38774 68.925 135.38774Q69.72188 135.38774 70.1125 134.76274Q70.50313 134.13774 70.51875 132.80962L70.51875 131.02837ZM78.6125 132.51274Q78.6125 134.41899 77.95625 135.35649Q77.31563 136.27837 75.925 136.27837Q74.56563 136.27837 73.90938 135.37212Q73.25313 134.46587 73.22188 132.65337L73.22188 131.21587Q73.22188 129.32524 73.8625 128.41899Q74.51875 127.497116 75.90938 127.497116Q77.28438 127.497116 77.94063 128.38774Q78.59688 129.26274 78.6125 131.10649L78.6125 132.51274ZM77.51875 131.02837Q77.51875 129.65337 77.12813 129.02837Q76.75313 128.38774 75.90938 128.38774Q75.08125 128.38774 74.69063 129.02837Q74.31563 129.65337 74.31563 130.95024L74.31563 132.68462Q74.31563 134.05962 74.70625 134.73149Q75.1125 135.38774 75.925 135.38774Q76.72188 135.38774 77.1125 134.76274Q77.50313 134.13774 77.51875 132.80962L77.51875 131.02837ZM85.6125 132.51274Q85.6125 134.41899 84.95625 135.35649Q84.31563 136.27837 82.925 136.27837Q81.56563 136.27837 80.90938 135.37212Q80.25313 134.46587 80.22188 132.65337L80.22188 131.21587Q80.22188 129.32524 80.8625 128.41899Q81.51875 127.497116 82.90938 127.497116Q84.28438 127.497116 84.94063 128.38774Q85.59688 129.26274 85.6125 131.10649L85.6125 132.51274ZM84.51875 131.02837Q84.51875 129.65337 84.12813 129.02837Q83.75313 128.38774 82.90938 128.38774Q82.08125 128.38774 81.69063 129.02837Q81.31563 129.65337 81.31563 130.95024L81.31563 132.68462Q81.31563 134.05962 81.70625 134.73149Q82.1125 135.38774 82.925 135.38774Q83.72188 135.38774 84.1125 134.76274Q84.50313 134.13774 84.51875 132.80962L84.51875 131.02837ZM92.6125 132.51274Q92.6125 134.41899 91.95625 135.35649Q91.31563 136.27837 89.925 136.27837Q88.56563 136.27837 87.90938 135.37212Q87.25313 134.46587 87.22188 132.65337L87.22188 131.21587Q87.22188 129.32524 87.8625 128.41899Q88.51875 127.497116 89.90938 127.497116Q91.28438 127.497116 91.94063 128.38774Q92.59688 129.26274 92.6125 131.10649L92.6125 132.51274ZM91.51875 131.02837Q91.51875 129.65337 91.12813 129.02837Q90.75313 128.38774 89.90938 128.38774Q89.08125 128.38774 88.69063 129.02837Q88.31563 129.65337 88.31563 130.95024L88.31563 132.68462Q88.31563 134.05962 88.70625 134.73149Q89.1125 135.38774 89.925 135.38774Q90.72188 135.38774 91.1125 134.76274Q91.50313 134.13774 91.51875 132.80962L91.51875 131.02837ZM99.6125 132.51274Q99.6125 134.41899 98.95625 135.35649Q98.31563 136.27837 96.925 136.27837Q95.56563 136.27837 94.90938 135.37212Q94.25313 134.46587 94.22188 132.65337L94.22188 131.21587Q94.22188 129.32524 94.8625 128.41899Q95.51875 127.497116 96.90938 127.497116Q98.28438 127.497116 98.94063 128.38774Q99.59688 129.26274 99.6125 131.10649L99.6125 132.51274ZM98.51875 131.02837Q98.51875 129.65337 98.12813 129.02837Q97.75313 128.38774 96.90938 128.38774Q96.08125 128.38774 95.69063 129.02837Q95.31563 129.65337 95.31563 130.95024L95.31563 132.68462Q95.31563 134.05962 95.70625 134.73149Q96.1125 135.38774 96.925 135.38774Q97.72188 135.38774 98.1125 134.76274Q98.50313 134.13774 98.51875 132.80962L98.51875 131.02837Z" fill-rule="nonzero"/><path fill="#757575" d="M55.815624 111.047966L54.7375 111.047966L54.7375 103.829216L52.55 104.62609L52.55 103.641716L55.659374 102.46984L55.815624 102.46984L55.815624 111.047966ZM64.6125 107.40734Q64.6125 109.31359 63.95625 110.25109Q63.315624 111.172966 61.925 111.172966Q60.565624 111.172966 59.909374 110.266716Q59.253124 109.360466 59.221874 107.547966L59.221874 106.110466Q59.221874 104.21984 59.8625 103.31359Q60.51875 102.391716 61.909374 102.391716Q63.284374 102.391716 63.940624 103.28234Q64.59688 104.15734 64.6125 106.00109L64.6125 107.40734ZM63.51875 105.922966Q63.51875 104.547966 63.128124 103.922966Q62.753124 103.28234 61.909374 103.28234Q61.08125 103.28234 60.690624 103.922966Q60.315624 104.547966 60.315624 105.84484L60.315624 107.579216Q60.315624 108.954216 60.70625 109.62609Q61.1125 110.28234 61.925 110.28234Q62.721874 110.28234 63.1125 109.65734Q63.503124 109.03234 63.51875 107.704216L63.51875 105.922966ZM71.6125 107.40734Q71.6125 109.31359 70.95625 110.25109Q70.31563 111.172966 68.925 111.172966Q67.56563 111.172966 66.90938 110.266716Q66.25313 109.360466 66.22188 107.547966L66.22188 106.110466Q66.22188 104.21984 66.8625 103.31359Q67.51875 102.391716 68.90938 102.391716Q70.28438 102.391716 70.94063 103.28234Q71.59688 104.15734 71.6125 106.00109L71.6125 107.40734ZM70.51875 105.922966Q70.51875 104.547966 70.12813 103.922966Q69.75313 103.28234 68.90938 103.28234Q68.08125 103.28234 67.69063 103.922966Q67.31563 104.547966 67.31563 105.84484L67.31563 107.579216Q67.31563 108.954216 67.70625 109.62609Q68.1125 110.28234 68.925 110.28234Q69.72188 110.28234 70.1125 109.65734Q70.50313 109.03234 70.51875 107.704216L70.51875 105.922966ZM78.6125 107.40734Q78.6125 109.31359 77.95625 110.25109Q77.31563 111.172966 75.925 111.172966Q74.56563 111.172966 73.90938 110.266716Q73.25313 109.360466 73.22188 107.547966L73.22188 106.110466Q73.22188 104.21984 73.8625 103.31359Q74.51875 102.391716 75.90938 102.391716Q77.28438 102.391716 77.94063 103.28234Q78.59688 104.15734 78.6125 106.00109L78.6125 107.40734ZM77.51875 105.922966Q77.51875 104.547966 77.12813 103.922966Q76.75313 103.28234 75.90938 103.28234Q75.08125 103.28234 74.69063 103.922966Q74.31563 104.547966 74.31563 105.84484L74.31563 107.579216Q74.31563 108.954216 74.70625 109.62609Q75.1125 110.28234 75.925 110.28234Q76.72188 110.28234 77.1125 109.65734Q77.50313 109.03234 77.51875 107.704216L77.51875 105.922966ZM85.6125 107.40734Q85.6125 109.31359 84.95625 110.25109Q84.31563 111.172966 82.925 111.172966Q81.56563 111.172966 80.90938 110.266716Q80.25313 109.360466 80.22188 107.547966L80.22188 106.110466Q80.22188 104.21984 80.8625 103.31359Q81.51875 102.391716 82.90938 102.391716Q84.28438 102.391716 84.94063 103.28234Q85.59688 104.15734 85.6125 106.00109L85.6125 107.40734ZM84.51875 105.922966Q84.51875 104.547966 84.12813 103.922966Q83.75313 103.28234 82.90938 103.28234Q82.08125 103.28234 81.69063 103.922966Q81.31563 104.547966 81.31563 105.84484L81.31563 107.579216Q81.31563 108.954216 81.70625 109.62609Q82.1125 110.28234 82.925 110.28234Q83.72188 110.28234 84.1125 109.65734Q84.50313 109.03234 84.51875 107.704216L84.51875 105.922966ZM92.6125 107.40734Q92.6125 109.31359 91.95625 110.25109Q91.31563 111.172966 89.925 111.172966Q88.56563 111.172966 87.90938 110.266716Q87.25313 109.360466 87.22188 107.547966L87.22188 106.110466Q87.22188 104.21984 87.8625 103.31359Q88.51875 102.391716 89.90938 102.391716Q91.28438 102.391716 91.94063 103.28234Q92.59688 104.15734 92.6125 106.00109L92.6125 107.40734ZM91.51875 105.922966Q91.51875 104.547966 91.12813 103.922966Q90.75313 103.28234 89.90938 103.28234Q89.08125 103.28234 88.69063 103.922966Q88.31563 104.547966 88.31563 105.84484L88.31563 107.579216Q88.31563 108.954216 88.70625 109.62609Q89.1125 110.28234 89.925 110.28234Q90.72188 110.28234 91.1125 109.65734Q91.50313 109.03234 91.51875 107.704216L91.51875 105.922966ZM99.6125 107.40734Q99.6125 109.31359 98.95625 110.25109Q98.31563 111.172966 96.925 111.172966Q95.56563 111.172966 94.90938 110.266716Q94.25313 109.360466 94.22188 107.547966L94.22188 106.110466Q94.22188 104.21984 94.8625 103.31359Q95.51875 102.391716 96.90938 102.391716Q98.28438 102.391716 98.94063 103.28234Q99.59688 104.15734 99.6125 106.00109L99.6125 107.40734ZM98.51875 105.922966Q98.51875 104.547966 98.12813 103.922966Q97.75313 103.28234 96.90938 103.28234Q96.08125 103.28234 95.69063 103.922966Q95.31563 104.547966 95.31563 105.84484L95.31563 107.579216Q95.31563 108.954216 95.70625 109.62609Q96.1125 110.28234 96.925 110.28234Q97.72188 110.28234 98.1125 109.65734Q98.50313 109.03234 98.51875 107.704216L98.51875 105.922966Z" fill-rule="nonzero"/><path fill="#757575" d="M160.52979 312.8094Q160.52979 314.71564 159.87354 315.65314Q159.23291 316.575 157.84229 316.575Q156.48291 316.575 155.82666 315.66876Q155.17041 314.7625 155.13916 312.95L155.13916 311.5125Q155.13916 309.6219 155.77979 308.71564Q156.43604 307.79376 157.82666 307.79376Q159.20166 307.79376 159.85791 308.6844Q160.51416 309.5594 160.52979 311.40314L160.52979 312.8094ZM159.43604 311.325Q159.43604 309.95 159.04541 309.325Q158.67041 308.6844 157.82666 308.6844Q156.99854 308.6844 156.60791 309.325Q156.23291 309.95 156.23291 311.2469L156.23291 312.98126Q156.23291 314.35626 156.62354 315.02814Q157.02979 315.6844 157.84229 315.6844Q158.63916 315.6844 159.02979 315.0594Q159.42041 314.4344 159.43604 313.10626L159.43604 311.325ZM164.54541 313.2625L161.68604 313.2625L161.68604 312.3875L164.54541 312.3875L164.54541 313.2625ZM168.73291 316.45L167.65479 316.45L167.65479 309.23126L165.46729 310.02814L165.46729 309.04376L168.57666 307.8719L168.73291 307.8719L168.73291 316.45ZM177.52979 312.8094Q177.52979 314.71564 176.87354 315.65314Q176.23291 316.575 174.84229 316.575Q173.48291 316.575 172.82666 315.66876Q172.17041 314.7625 172.13916 312.95L172.13916 311.5125Q172.13916 309.6219 172.77979 308.71564Q173.43604 307.79376 174.82666 307.79376Q176.20166 307.79376 176.85791 308.6844Q177.51416 309.5594 177.52979 311.40314L177.52979 312.8094ZM176.43604 311.325Q176.43604 309.95 176.04541 309.325Q175.67041 308.6844 174.82666 308.6844Q173.99854 308.6844 173.60791 309.325Q173.23291 309.95 173.23291 311.2469L173.23291 312.98126Q173.23291 314.35626 173.62354 315.02814Q174.02979 315.6844 174.84229 315.6844Q175.63916 315.6844 176.02979 315.0594Q176.42041 314.4344 176.43604 313.10626L176.43604 311.325Z" fill-rule="nonzero"/><path fill="#757575" d="M243.99927 316.45L242.92114 316.45L242.92114 309.23126L240.73364 310.02814L240.73364 309.04376L243.84302 307.8719L243.99927 307.8719L243.99927 316.45ZM252.79614 312.8094Q252.79614 314.71564 252.1399 315.65314Q251.49927 316.575 250.10864 316.575Q248.74927 316.575 248.09302 315.66876Q247.43677 314.7625 247.40552 312.95L247.40552 311.5125Q247.40552 309.6219 248.04614 308.71564Q248.7024 307.79376 250.09302 307.79376Q251.46802 307.79376 252.12427 308.6844Q252.78052 309.5594 252.79614 311.40314L252.79614 312.8094ZM251.7024 311.325Q251.7024 309.95 251.31177 309.325Q250.93677 308.6844 250.09302 308.6844Q249.2649 308.6844 248.87427 309.325Q248.49927 309.95 248.49927 311.2469L248.49927 312.98126Q248.49927 314.35626 248.8899 315.02814Q249.29614 315.6844 250.10864 315.6844Q250.90552 315.6844 251.29614 315.0594Q251.68677 314.4344 251.7024 313.10626L251.7024 311.325ZM256.81177 313.2625L253.9524 313.2625L253.9524 312.3875L256.81177 312.3875L256.81177 313.2625ZM262.9524 308.52814L259.42114 316.45L258.28052 316.45L261.79614 308.8094L257.18677 308.8094L257.18677 307.91876L262.9524 307.91876L262.9524 308.52814ZM264.93677 312.16876L265.37427 307.91876L269.74927 307.91876L269.74927 308.91876L266.29614 308.91876L266.03052 311.2469Q266.67114 310.8719 267.46802 310.8719Q268.62427 310.8719 269.31177 311.65314Q269.99927 312.41876 269.99927 313.73126Q269.99927 315.04376 269.28052 315.8094Q268.5774 316.575 267.29614 316.575Q266.17114 316.575 265.4524 315.95Q264.73364 315.3094 264.6399 314.2L265.65552 314.2Q265.7649 314.9344 266.18677 315.3094Q266.60864 315.6844 267.29614 315.6844Q268.04614 315.6844 268.48364 315.16876Q268.92114 314.65314 268.92114 313.7469Q268.92114 312.8875 268.4524 312.3719Q267.98364 311.85626 267.2024 311.85626Q266.49927 311.85626 266.09302 312.15314L265.81177 312.3875L264.93677 312.16876Z" fill-rule="nonzero"/><path fill="#757575" d="M331.21875 308.52814L327.6875 316.45L326.54688 316.45L330.0625 308.8094L325.45312 308.8094L325.45312 307.91876L331.21875 307.91876L331.21875 308.52814ZM333.20312 312.16876L333.64062 307.91876L338.01562 307.91876L338.01562 308.91876L334.5625 308.91876L334.29688 311.2469Q334.9375 310.8719 335.73438 310.8719Q336.89062 310.8719 337.57812 311.65314Q338.26562 312.41876 338.26562 313.73126Q338.26562 315.04376 337.54688 315.8094Q336.84375 316.575 335.5625 316.575Q334.4375 316.575 333.71875 315.95Q333.0 315.3094 332.90625 314.2L333.92188 314.2Q334.03125 314.9344 334.45312 315.3094Q334.875 315.6844 335.5625 315.6844Q336.3125 315.6844 336.75 315.16876Q337.1875 314.65314 337.1875 313.7469Q337.1875 312.8875 336.71875 312.3719Q336.25 311.85626 335.46875 311.85626Q334.76562 311.85626 334.35938 312.15314L334.07812 312.3875L333.20312 312.16876ZM342.07812 313.2625L339.21875 313.2625L339.21875 312.3875L342.07812 312.3875L342.07812 313.2625ZM348.29688 316.45L342.70312 316.45L342.70312 315.66876L345.65625 312.3875Q346.3125 311.6375 346.5625 311.1844Q346.8125 310.71564 346.8125 310.21564Q346.8125 309.54376 346.40625 309.1219Q346.01562 308.6844 345.32812 308.6844Q344.53125 308.6844 344.07812 309.15314Q343.625 309.60626 343.625 310.4344L342.54688 310.4344Q342.54688 309.2469 343.29688 308.52814Q344.0625 307.79376 345.32812 307.79376Q346.53125 307.79376 347.21875 308.41876Q347.90625 309.04376 347.90625 310.09064Q347.90625 311.34064 346.29688 313.09064L344.01562 315.5594L348.29688 315.5594L348.29688 316.45ZM350.20312 312.16876L350.64062 307.91876L355.01562 307.91876L355.01562 308.91876L351.5625 308.91876L351.29688 311.2469Q351.9375 310.8719 352.73438 310.8719Q353.89062 310.8719 354.57812 311.65314Q355.26562 312.41876 355.26562 313.73126Q355.26562 315.04376 354.54688 315.8094Q353.84375 316.575 352.5625 316.575Q351.4375 316.575 350.71875 315.95Q350.0 315.3094 349.90625 314.2L350.92188 314.2Q351.03125 314.9344 351.45312 315.3094Q351.875 315.6844 352.5625 315.6844Q353.3125 315.6844 353.75 315.16876Q354.1875 314.65314 354.1875 313.7469Q354.1875 312.8875 353.71875 312.3719Q353.25 311.85626 352.46875 311.85626Q351.76562 311.85626 351.35938 312.15314L351.07812 312.3875L350.20312 312.16876ZM362.0625 312.8094Q362.0625 314.71564 361.40625 315.65314Q360.76562 316.575 359.375 316.575Q358.01562 316.575 357.35938 315.66876Q356.70312 314.7625 356.67188 312.95L356.67188 311.5125Q356.67188 309.6219 357.3125 308.71564Q357.96875 307.79376 359.35938 307.79376Q360.73438 307.79376 361.39062 308.6844Q362.04688 309.5594 362.0625 311.40314L362.0625 312.8094ZM360.96875 311.325Q360.96875 309.95 360.57812 309.325Q360.20312 308.6844 359.35938 308.6844Q358.53125 308.6844 358.14062 309.325Q357.76562 309.95 357.76562 311.2469L357.76562 312.98126Q357.76562 314.35626 358.15625 315.02814Q358.5625 315.6844 359.375 315.6844Q360.17188 315.6844 360.5625 315.0594Q360.95312 314.4344 360.96875 313.10626L360.96875 311.325Z" fill-rule="nonzero"/><path fill="#757575" d="M416.56323 316.45L410.96948 316.45L410.96948 315.66876L413.9226 312.3875Q414.57886 311.6375 414.82886 311.1844Q415.07886 310.71564 415.07886 310.21564Q415.07886 309.54376 414.6726 309.1219Q414.28198 308.6844 413.59448 308.6844Q412.7976 308.6844 412.34448 309.15314Q411.89136 309.60626 411.89136 310.4344L410.81323 310.4344Q410.81323 309.2469 411.56323 308.52814Q412.32886 307.79376 413.59448 307.79376Q414.7976 307.79376 415.4851 308.41876Q416.1726 309.04376 416.1726 310.09064Q416.1726 311.34064 414.56323 313.09064L412.28198 315.5594L416.56323 315.5594L416.56323 316.45ZM418.46948 312.16876L418.90698 307.91876L423.28198 307.91876L423.28198 308.91876L419.82886 308.91876L419.56323 311.2469Q420.20386 310.8719 421.00073 310.8719Q422.15698 310.8719 422.84448 311.65314Q423.53198 312.41876 423.53198 313.73126Q423.53198 315.04376 422.81323 315.8094Q422.1101 316.575 420.82886 316.575Q419.70386 316.575 418.9851 315.95Q418.26636 315.3094 418.1726 314.2L419.18823 314.2Q419.2976 314.9344 419.71948 315.3094Q420.14136 315.6844 420.82886 315.6844Q421.57886 315.6844 422.01636 315.16876Q422.45386 314.65314 422.45386 313.7469Q422.45386 312.8875 421.9851 312.3719Q421.51636 311.85626 420.7351 311.85626Q420.03198 311.85626 419.62573 312.15314L419.34448 312.3875L418.46948 312.16876ZM430.32886 312.8094Q430.32886 314.71564 429.6726 315.65314Q429.03198 316.575 427.64136 316.575Q426.28198 316.575 425.62573 315.66876Q424.96948 314.7625 424.93823 312.95L424.93823 311.5125Q424.93823 309.6219 425.57886 308.71564Q426.2351 307.79376 427.62573 307.79376Q429.00073 307.79376 429.65698 308.6844Q430.31323 309.5594 430.32886 311.40314L430.32886 312.8094ZM429.2351 311.325Q429.2351 309.95 428.84448 309.325Q428.46948 308.6844 427.62573 308.6844Q426.7976 308.6844 426.40698 309.325Q426.03198 309.95 426.03198 311.2469L426.03198 312.98126Q426.03198 314.35626 426.4226 315.02814Q426.82886 315.6844 427.64136 315.6844Q428.43823 315.6844 428.82886 315.0594Q429.21948 314.4344 429.2351 313.10626L429.2351 311.325ZM434.34448 313.2625L431.4851 313.2625L431.4851 312.3875L434.34448 312.3875L434.34448 313.2625ZM435.46948 312.16876L435.90698 307.91876L440.28198 307.91876L440.28198 308.91876L436.82886 308.91876L436.56323 311.2469Q437.20386 310.8719 438.00073 310.8719Q439.15698 310.8719 439.84448 311.65314Q440.53198 312.41876 440.53198 313.73126Q440.53198 315.04376 439.81323 315.8094Q439.1101 316.575 437.82886 316.575Q436.70386 316.575 435.9851 315.95Q435.26636 315.3094 435.1726 314.2L436.18823 314.2Q436.2976 314.9344 436.71948 315.3094Q437.14136 315.6844 437.82886 315.6844Q438.57886 315.6844 439.01636 315.16876Q439.45386 314.65314 439.45386 313.7469Q439.45386 312.8875 438.9851 312.3719Q438.51636 311.85626 437.7351 311.85626Q437.03198 311.85626 436.62573 312.15314L436.34448 312.3875L435.46948 312.16876ZM447.32886 312.8094Q447.32886 314.71564 446.6726 315.65314Q446.03198 316.575 444.64136 316.575Q443.28198 316.575 442.62573 315.66876Q441.96948 314.7625 441.93823 312.95L441.93823 311.5125Q441.93823 309.6219 442.57886 308.71564Q443.2351 307.79376 444.62573 307.79376Q446.00073 307.79376 446.65698 308.6844Q447.31323 309.5594 447.32886 311.40314L447.32886 312.8094ZM446.2351 311.325Q446.2351 309.95 445.84448 309.325Q445.46948 308.6844 444.62573 308.6844Q443.7976 308.6844 443.40698 309.325Q443.03198 309.95 443.03198 311.2469L443.03198 312.98126Q443.03198 314.35626 443.4226 315.02814Q443.82886 315.6844 444.64136 315.6844Q445.43823 315.6844 445.82886 315.0594Q446.21948 314.4344 446.2351 313.10626L446.2351 311.325ZM454.32886 312.8094Q454.32886 314.71564 453.6726 315.65314Q453.03198 316.575 451.64136 316.575Q450.28198 316.575 449.62573 315.66876Q448.96948 314.7625 448.93823 312.95L448.93823 311.5125Q448.93823 309.6219 449.57886 308.71564Q450.2351 307.79376 451.62573 307.79376Q453.00073 307.79376 453.65698 308.6844Q454.31323 309.5594 454.32886 311.40314L454.32886 312.8094ZM453.2351 311.325Q453.2351 309.95 452.84448 309.325Q452.46948 308.6844 451.62573 308.6844Q450.7976 308.6844 450.40698 309.325Q450.03198 309.95 450.03198 311.2469L450.03198 312.98126Q450.03198 314.35626 450.4226 315.02814Q450.82886 315.6844 451.64136 315.6844Q452.43823 315.6844 452.82886 315.0594Q453.21948 314.4344 453.2351 313.10626L453.2351 311.325Z" fill-rule="nonzero"/><path fill="#757575" d="M508.73584 312.16876L509.17334 307.91876L513.54834 307.91876L513.54834 308.91876L510.0952 308.91876L509.8296 311.2469Q510.4702 310.8719 511.2671 310.8719Q512.42334 310.8719 513.11084 311.65314Q513.79834 312.41876 513.79834 313.73126Q513.79834 315.04376 513.0796 315.8094Q512.37646 316.575 511.0952 316.575Q509.9702 316.575 509.25146 315.95Q508.5327 315.3094 508.43896 314.2L509.4546 314.2Q509.56396 314.9344 509.98584 315.3094Q510.4077 315.6844 511.0952 315.6844Q511.8452 315.6844 512.2827 315.16876Q512.7202 314.65314 512.7202 313.7469Q512.7202 312.8875 512.25146 312.3719Q511.7827 311.85626 511.00146 311.85626Q510.29834 311.85626 509.8921 312.15314L509.61084 312.3875L508.73584 312.16876ZM520.5952 312.8094Q520.5952 314.71564 519.93896 315.65314Q519.29834 316.575 517.9077 316.575Q516.54834 316.575 515.8921 315.66876Q515.23584 314.7625 515.2046 312.95L515.2046 311.5125Q515.2046 309.6219 515.8452 308.71564Q516.50146 307.79376 517.8921 307.79376Q519.2671 307.79376 519.92334 308.6844Q520.5796 309.5594 520.5952 311.40314L520.5952 312.8094ZM519.50146 311.325Q519.50146 309.95 519.11084 309.325Q518.73584 308.6844 517.8921 308.6844Q517.06396 308.6844 516.67334 309.325Q516.29834 309.95 516.29834 311.2469L516.29834 312.98126Q516.29834 314.35626 516.68896 315.02814Q517.0952 315.6844 517.9077 315.6844Q518.7046 315.6844 519.0952 315.0594Q519.48584 314.4344 519.50146 313.10626L519.50146 311.325ZM527.5952 312.8094Q527.5952 314.71564 526.93896 315.65314Q526.29834 316.575 524.9077 316.575Q523.54834 316.575 522.8921 315.66876Q522.23584 314.7625 522.2046 312.95L522.2046 311.5125Q522.2046 309.6219 522.8452 308.71564Q523.50146 307.79376 524.8921 307.79376Q526.2671 307.79376 526.92334 308.6844Q527.5796 309.5594 527.5952 311.40314L527.5952 312.8094ZM526.50146 311.325Q526.50146 309.95 526.11084 309.325Q525.73584 308.6844 524.8921 308.6844Q524.06396 308.6844 523.67334 309.325Q523.29834 309.95 523.29834 311.2469L523.29834 312.98126Q523.29834 314.35626 523.68896 315.02814Q524.0952 315.6844 524.9077 315.6844Q525.7046 315.6844 526.0952 315.0594Q526.48584 314.4344 526.50146 313.10626L526.50146 311.325ZM532.4546 311.8719L534.8452 311.8719L534.8452 312.90314L532.4546 312.90314L532.4546 315.59064L531.37646 315.59064L531.37646 312.90314L528.98584 312.90314L528.98584 311.8719L531.37646 311.8719L531.37646 309.3875L532.4546 309.3875L532.4546 311.8719Z" fill-rule="nonzero"/><path fill="#757575" d="M31.128124 37.55L29.2375 37.55L22.08125 26.596874L22.08125 37.55L20.20625 37.55L20.20625 23.33125L22.08125 23.33125L29.26875 34.33125L29.26875 23.33125L31.128124 23.33125L31.128124 37.55ZM40.440624 36.503124Q39.39375 37.753124 37.346874 37.753124Q35.659374 37.753124 34.76875 36.76875Q33.89375 35.784374 33.878124 33.8625L33.878124 26.9875L35.690624 26.9875L35.690624 33.815624Q35.690624 36.20625 37.64375 36.20625Q39.70625 36.20625 40.39375 34.675L40.39375 26.9875L42.20625 26.9875L42.20625 37.55L40.4875 37.55L40.440624 36.503124ZM46.6125 26.9875L46.659374 28.159374Q47.83125 26.784374 49.8 26.784374Q52.01875 26.784374 52.815624 28.4875Q53.346874 27.721874 54.190624 27.253124Q55.034374 26.784374 56.190624 26.784374Q59.659374 26.784374 59.721874 30.471874L59.721874 37.55L57.909374 37.55L57.909374 30.58125Q57.909374 29.440624 57.39375 28.878124Q56.878124 28.315624 55.659374 28.315624Q54.659374 28.315624 53.9875 28.925Q53.33125 29.51875 53.221874 30.534374L53.221874 37.55L51.409374 37.55L51.409374 30.628124Q51.409374 28.315624 49.14375 28.315624Q47.3625 28.315624 46.721874 29.83125L46.721874 37.55L44.909374 37.55L44.909374 26.9875L46.6125 26.9875ZM71.8625 32.378124Q71.8625 34.8 70.75313 36.284374Q69.64375 37.753124 67.76875 37.753124Q65.75313 37.753124 64.65938 36.33125L64.58125 37.55L62.925 37.55L62.925 22.55L64.72188 22.55L64.72188 28.14375Q65.81563 26.784374 67.7375 26.784374Q69.65938 26.784374 70.75313 28.2375Q71.8625 29.690624 71.8625 32.221874L71.8625 32.378124ZM70.05 32.175Q70.05 30.33125 69.33125 29.33125Q68.62813 28.315624 67.3 28.315624Q65.50313 28.315624 64.72188 29.9875L64.72188 34.55Q65.55 36.20625 67.31563 36.20625Q68.6125 36.20625 69.33125 35.20625Q70.05 34.20625 70.05 32.175ZM78.3 37.753124Q76.15938 37.753124 74.8 36.346874Q73.45625 34.925 73.45625 32.565624L73.45625 32.221874Q73.45625 30.659374 74.05 29.425Q74.65938 28.190624 75.7375 27.4875Q76.81563 26.784374 78.08125 26.784374Q80.14375 26.784374 81.28438 28.14375Q82.425 29.503124 82.425 32.034374L82.425 32.784374L75.26875 32.784374Q75.3 34.346874 76.175 35.315624Q77.05 36.26875 78.39375 36.26875Q79.3625 36.26875 80.01875 35.878124Q80.69063 35.4875 81.19063 34.846874L82.28438 35.70625Q80.95625 37.753124 78.3 37.753124ZM78.08125 28.26875Q76.9875 28.26875 76.2375 29.065624Q75.50313 29.8625 75.33125 31.3L80.6125 31.3L80.6125 31.159374Q80.53438 29.784374 79.8625 29.034374Q79.20625 28.26875 78.08125 28.26875ZM90.01875 28.596874Q89.6125 28.534374 89.14375 28.534374Q87.3625 28.534374 86.72188 30.05L86.72188 37.55L84.925 37.55L84.925 26.9875L86.675 26.9875L86.70625 28.20625Q87.59688 26.784374 89.22188 26.784374Q89.75313 26.784374 90.01875 26.925L90.01875 28.596874ZM96.44063 32.175Q96.44063 30.6125 97.05 29.378124Q97.65938 28.128124 98.7375 27.45625Q99.83125 26.784374 101.2375 26.784374Q103.39375 26.784374 104.72188 28.284374Q106.06563 29.76875 106.06563 32.253124L106.06563 32.378124Q106.06563 33.925 105.47188 35.159374Q104.87813 36.378124 103.76875 37.065624Q102.675 37.753124 101.25313 37.753124Q99.1125 37.753124 97.76875 36.253124Q96.44063 34.753124 96.44063 32.3L96.44063 32.175ZM98.25313 32.378124Q98.25313 34.14375 99.06563 35.20625Q99.89375 36.26875 101.25313 36.26875Q102.62813 36.26875 103.44063 35.190624Q104.25313 34.1125 104.25313 32.175Q104.25313 30.425 103.425 29.346874Q102.59688 28.26875 101.2375 28.26875Q99.89375 28.26875 99.06563 29.33125Q98.25313 30.39375 98.25313 32.378124ZM108.8 37.55L108.8 28.378124L107.14375 28.378124L107.14375 26.9875L108.8 26.9875L108.8 25.89375Q108.8 24.20625 109.70625 23.284374Q110.62813 22.346874 112.28438 22.346874Q112.90938 22.346874 113.51875 22.503124L113.425 23.971874Q112.97188 23.89375 112.45625 23.89375Q111.56563 23.89375 111.08125 24.409374Q110.6125 24.909374 110.6125 25.8625L110.6125 26.9875L112.8625 26.9875L112.8625 28.378124L110.6125 28.378124L110.6125 37.55L108.8 37.55ZM124.39375 31.20625Q121.97188 30.51875 120.87813 29.51875Q119.78438 28.503124 119.78438 27.01875Q119.78438 25.33125 121.12813 24.2375Q122.47188 23.128124 124.6125 23.128124Q126.08125 23.128124 127.22188 23.70625Q128.37813 24.26875 129.00313 25.26875Q129.62813 26.253124 129.62813 27.440624L127.75313 27.440624Q127.75313 26.159374 126.925 25.425Q126.1125 24.675 124.6125 24.675Q123.22188 24.675 122.44063 25.284374Q121.675 25.89375 121.675 26.9875Q121.675 27.846874 122.40938 28.45625Q123.14375 29.05 124.90938 29.55Q126.69063 30.05 127.69063 30.659374Q128.69063 31.253124 129.175 32.05Q129.65938 32.846874 129.65938 33.940624Q129.65938 35.659374 128.31563 36.70625Q126.97188 37.753124 124.70625 37.753124Q123.25313 37.753124 121.97188 37.190624Q120.70625 36.628124 120.01875 35.659374Q119.33125 34.675 119.33125 33.425L121.22188 33.425Q121.22188 34.721874 122.175 35.471874Q123.12813 36.20625 124.70625 36.20625Q126.19063 36.20625 126.9875 35.6125Q127.78438 35.003124 127.78438 33.95625Q127.78438 32.909374 127.05 32.346874Q126.31563 31.76875 124.39375 31.20625ZM134.3625 24.425L134.3625 26.9875L136.34688 26.9875L136.34688 28.378124L134.3625 28.378124L134.3625 34.925Q134.3625 35.565624 134.62813 35.89375Q134.89375 36.20625 135.53438 36.20625Q135.84688 36.20625 136.39375 36.08125L136.39375 37.55Q135.675 37.753124 135.00313 37.753124Q133.8 37.753124 133.175 37.01875Q132.56563 36.284374 132.56563 34.925L132.56563 28.378124L130.64375 28.378124L130.64375 26.9875L132.56563 26.9875L132.56563 24.425L134.3625 24.425ZM138.44063 32.175Q138.44063 30.6125 139.05 29.378124Q139.65938 28.128124 140.7375 27.45625Q141.83125 26.784374 143.2375 26.784374Q145.39375 26.784374 146.72188 28.284374Q148.06563 29.76875 148.06563 32.253124L148.06563 32.378124Q148.06563 33.925 147.47188 35.159374Q146.87813 36.378124 145.76875 37.065624Q144.675 37.753124 143.25313 37.753124Q141.1125 37.753124 139.76875 36.253124Q138.44063 34.753124 138.44063 32.3L138.44063 32.175ZM140.25313 32.378124Q140.25313 34.14375 141.06563 35.20625Q141.89375 36.26875 143.25313 36.26875Q144.62813 36.26875 145.44063 35.190624Q146.25313 34.1125 146.25313 32.175Q146.25313 30.425 145.425 29.346874Q144.59688 28.26875 143.2375 28.26875Q141.89375 28.26875 141.06563 29.33125Q140.25313 30.39375 140.25313 32.378124ZM155.01875 28.596874Q154.6125 28.534374 154.14375 28.534374Q152.3625 28.534374 151.72188 30.05L151.72188 37.55L149.925 37.55L149.925 26.9875L151.675 26.9875L151.70625 28.20625Q152.59688 26.784374 154.22188 26.784374Q154.75313 26.784374 155.01875 26.925L155.01875 28.596874ZM158.87813 37.55L157.08125 37.55L157.08125 26.9875L158.87813 26.9875L158.87813 37.55ZM156.925 24.175Q156.925 23.7375 157.19063 23.440624Q157.47188 23.128124 157.9875 23.128124Q158.51875 23.128124 158.78438 23.440624Q159.06563 23.7375 159.06563 24.175Q159.06563 24.6125 158.78438 24.909374Q158.51875 25.20625 157.9875 25.20625Q157.47188 25.20625 157.19063 24.909374Q156.925 24.6125 156.925 24.175ZM166.3 37.753124Q164.15938 37.753124 162.8 36.346874Q161.45625 34.925 161.45625 32.565624L161.45625 32.221874Q161.45625 30.659374 162.05 29.425Q162.65938 28.190624 163.7375 27.4875Q164.81563 26.784374 166.08125 26.784374Q168.14375 26.784374 169.28438 28.14375Q170.425 29.503124 170.425 32.034374L170.425 32.784374L163.26875 32.784374Q163.3 34.346874 164.175 35.315624Q165.05 36.26875 166.39375 36.26875Q167.3625 36.26875 168.01875 35.878124Q168.69063 35.4875 169.19063 34.846874L170.28438 35.70625Q168.95625 37.753124 166.3 37.753124ZM166.08125 28.26875Q164.9875 28.26875 164.2375 29.065624Q163.50313 29.8625 163.33125 31.3L168.6125 31.3L168.6125 31.159374Q168.53438 29.784374 167.8625 29.034374Q167.20625 28.26875 166.08125 28.26875ZM179.06563 34.753124Q179.06563 34.01875 178.51875 33.6125Q177.97188 33.20625 176.59688 32.909374Q175.22188 32.6125 174.40938 32.20625Q173.6125 31.8 173.22188 31.2375Q172.84688 30.659374 172.84688 29.878124Q172.84688 28.58125 173.94063 27.690624Q175.03438 26.784374 176.75313 26.784374Q178.55 26.784374 179.65938 27.721874Q180.78438 28.64375 180.78438 30.08125L178.95625 30.08125Q178.95625 29.346874 178.33125 28.815624Q177.70625 28.26875 176.75313 28.26875Q175.75313 28.26875 175.19063 28.70625Q174.64375 29.128124 174.64375 29.83125Q174.64375 30.471874 175.15938 30.815624Q175.675 31.14375 177.03438 31.45625Q178.39375 31.753124 179.22188 32.175Q180.06563 32.58125 180.47188 33.175Q180.87813 33.76875 180.87813 34.6125Q180.87813 36.034374 179.7375 36.89375Q178.6125 37.753124 176.8 37.753124Q175.53438 37.753124 174.55 37.3Q173.58125 36.846874 173.01875 36.05Q172.47188 35.2375 172.47188 34.3L174.28438 34.3Q174.33125 35.20625 175.00313 35.7375Q175.69063 36.26875 176.8 36.26875Q177.83125 36.26875 178.44063 35.8625Q179.06563 35.440624 179.06563 34.753124ZM188.8 37.55L188.8 28.378124L187.14375 28.378124L187.14375 26.9875L188.8 26.9875L188.8 25.89375Q188.8 24.20625 189.70625 23.284374Q190.62813 22.346874 192.28438 22.346874Q192.90938 22.346874 193.51875 22.503124L193.425 23.971874Q192.97188 23.89375 192.45625 23.89375Q191.56563 23.89375 191.08125 24.409374Q190.6125 24.909374 190.6125 25.8625L190.6125 26.9875L192.8625 26.9875L192.8625 28.378124L190.6125 28.378124L190.6125 37.55L188.8 37.55ZM194.44063 32.175Q194.44063 30.6125 195.05 29.378124Q195.65938 28.128124 196.7375 27.45625Q197.83125 26.784374 199.2375 26.784374Q201.39375 26.784374 202.72188 28.284374Q204.06563 29.76875 204.06563 32.253124L204.06563 32.378124Q204.06563 33.925 203.47188 35.159374Q202.87813 36.378124 201.76875 37.065624Q200.675 37.753124 199.25313 37.753124Q197.1125 37.753124 195.76875 36.253124Q194.44063 34.753124 194.44063 32.3L194.44063 32.175ZM196.25313 32.378124Q196.25313 34.14375 197.06563 35.20625Q197.89375 36.26875 199.25313 36.26875Q200.62813 36.26875 201.44063 35.190624Q202.25313 34.1125 202.25313 32.175Q202.25313 30.425 201.425 29.346874Q200.59688 28.26875 199.2375 28.26875Q197.89375 28.26875 197.06563 29.33125Q196.25313 30.39375 196.25313 32.378124ZM211.01875 28.596874Q210.6125 28.534374 210.14375 28.534374Q208.3625 28.534374 207.72188 30.05L207.72188 37.55L205.925 37.55L205.925 26.9875L207.675 26.9875L207.70625 28.20625Q208.59688 26.784374 210.22188 26.784374Q210.75313 26.784374 211.01875 26.925L211.01875 28.596874ZM226.2375 30.971874L220.08125 30.971874L220.08125 36.01875L227.2375 36.01875L227.2375 37.55L218.20625 37.55L218.20625 23.33125L227.14375 23.33125L227.14375 24.878124L220.08125 24.878124L220.08125 29.440624L226.2375 29.440624L226.2375 30.971874ZM235.44063 37.55Q235.28438 37.2375 235.19063 36.440624Q233.925 37.753124 232.175 37.753124Q230.6125 37.753124 229.6125 36.8625Q228.6125 35.971874 228.6125 34.6125Q228.6125 32.971874 229.8625 32.065624Q231.12813 31.14375 233.39375 31.14375L235.15938 31.14375L235.15938 30.315624Q235.15938 29.3625 234.58125 28.8Q234.01875 28.2375 232.925 28.2375Q231.95625 28.2375 231.3 28.7375Q230.64375 29.221874 230.64375 29.909374L228.83125 29.909374Q228.83125 29.128124 229.39375 28.39375Q229.95625 27.64375 230.90938 27.221874Q231.87813 26.784374 233.03438 26.784374Q234.8625 26.784374 235.89375 27.70625Q236.925 28.6125 236.97188 30.221874L236.97188 35.08125Q236.97188 36.534374 237.33125 37.39375L237.33125 37.55L235.44063 37.55ZM232.44063 36.175Q233.3 36.175 234.05 35.7375Q234.81563 35.3 235.15938 34.596874L235.15938 32.425L233.7375 32.425Q230.425 32.425 230.425 34.3625Q230.425 35.221874 230.9875 35.70625Q231.55 36.175 232.44063 36.175ZM244.15938 36.26875Q245.12813 36.26875 245.84688 35.690624Q246.56563 35.096874 246.64375 34.221874L248.3625 34.221874Q248.3 35.128124 247.72188 35.95625Q247.15938 36.76875 246.19063 37.26875Q245.2375 37.753124 244.15938 37.753124Q242.00313 37.753124 240.72188 36.315624Q239.45625 34.8625 239.45625 32.3625L239.45625 32.065624Q239.45625 30.51875 240.01875 29.315624Q240.58125 28.1125 241.64375 27.45625Q242.70625 26.784374 244.14375 26.784374Q245.925 26.784374 247.09688 27.846874Q248.28438 28.909374 248.3625 30.6125L246.64375 30.6125Q246.56563 29.596874 245.8625 28.940624Q245.175 28.26875 244.14375 28.26875Q242.76875 28.26875 242.00313 29.26875Q241.25313 30.253124 241.25313 32.128124L241.25313 32.471874Q241.25313 34.3 242.00313 35.284374Q242.75313 36.26875 244.15938 36.26875ZM251.72188 28.26875Q252.925 26.784374 254.84688 26.784374Q258.20624 26.784374 258.22186 30.565624L258.22186 37.55L256.425 37.55L256.425 30.55Q256.40936 29.409374 255.89375 28.8625Q255.39375 28.315624 254.3 28.315624Q253.425 28.315624 252.75313 28.784374Q252.09688 29.253124 251.72188 30.01875L251.72188 37.55L249.925 37.55L249.925 22.55L251.72188 22.55L251.72188 28.26875ZM270.39374 31.20625Q267.97186 30.51875 266.8781 29.51875Q265.78436 28.503124 265.78436 27.01875Q265.78436 25.33125 267.1281 24.2375Q268.47186 23.128124 270.6125 23.128124Q272.08124 23.128124 273.22186 23.70625Q274.3781 24.26875 275.0031 25.26875Q275.6281 26.253124 275.6281 27.440624L273.7531 27.440624Q273.7531 26.159374 272.925 25.425Q272.1125 24.675 270.6125 24.675Q269.22186 24.675 268.4406 25.284374Q267.675 25.89375 267.675 26.9875Q267.675 27.846874 268.40936 28.45625Q269.14374 29.05 270.90936 29.55Q272.6906 30.05 273.6906 30.659374Q274.6906 31.253124 275.175 32.05Q275.65936 32.846874 275.65936 33.940624Q275.65936 35.659374 274.3156 36.70625Q272.97186 37.753124 270.70624 37.753124Q269.2531 37.753124 267.97186 37.190624Q266.70624 36.628124 266.01874 35.659374Q265.33124 34.675 265.33124 33.425L267.22186 33.425Q267.22186 34.721874 268.175 35.471874Q269.1281 36.20625 270.70624 36.20625Q272.1906 36.20625 272.9875 35.6125Q273.78436 35.003124 273.78436 33.95625Q273.78436 32.909374 273.05 32.346874Q272.3156 31.76875 270.39374 31.20625ZM282.15936 36.26875Q283.1281 36.26875 283.84686 35.690624Q284.5656 35.096874 284.64374 34.221874L286.3625 34.221874Q286.3 35.128124 285.72186 35.95625Q285.15936 36.76875 284.1906 37.26875Q283.2375 37.753124 282.15936 37.753124Q280.0031 37.753124 278.72186 36.315624Q277.45624 34.8625 277.45624 32.3625L277.45624 32.065624Q277.45624 30.51875 278.01874 29.315624Q278.58124 28.1125 279.64374 27.45625Q280.70624 26.784374 282.14374 26.784374Q283.925 26.784374 285.09686 27.846874Q286.28436 28.909374 286.3625 30.6125L284.64374 30.6125Q284.5656 29.596874 283.8625 28.940624Q283.175 28.26875 282.14374 28.26875Q280.76874 28.26875 280.0031 29.26875Q279.2531 30.253124 279.2531 32.128124L279.2531 32.471874Q279.2531 34.3 280.0031 35.284374Q280.7531 36.26875 282.15936 36.26875ZM287.4406 32.175Q287.4406 30.6125 288.05 29.378124Q288.65936 28.128124 289.7375 27.45625Q290.83124 26.784374 292.2375 26.784374Q294.39374 26.784374 295.72186 28.284374Q297.0656 29.76875 297.0656 32.253124L297.0656 32.378124Q297.0656 33.925 296.47186 35.159374Q295.8781 36.378124 294.76874 37.065624Q293.675 37.753124 292.2531 37.753124Q290.1125 37.753124 288.76874 36.253124Q287.4406 34.753124 287.4406 32.3L287.4406 32.175ZM289.2531 32.378124Q289.2531 34.14375 290.0656 35.20625Q290.89374 36.26875 292.2531 36.26875Q293.6281 36.26875 294.4406 35.190624Q295.2531 34.1125 295.2531 32.175Q295.2531 30.425 294.425 29.346874Q293.59686 28.26875 292.2375 28.26875Q290.89374 28.26875 290.0656 29.33125Q289.2531 30.39375 289.2531 32.378124ZM304.01874 28.596874Q303.6125 28.534374 303.14374 28.534374Q301.3625 28.534374 300.72186 30.05L300.72186 37.55L298.925 37.55L298.925 26.9875L300.675 26.9875L300.70624 28.20625Q301.59686 26.784374 303.22186 26.784374Q303.7531 26.784374 304.01874 26.925L304.01874 28.596874ZM310.3 37.753124Q308.15936 37.753124 306.8 36.346874Q305.45624 34.925 305.45624 32.565624L305.45624 32.221874Q305.45624 30.659374 306.05 29.425Q306.65936 28.190624 307.7375 27.4875Q308.8156 26.784374 310.08124 26.784374Q312.14374 26.784374 313.28436 28.14375Q314.425 29.503124 314.425 32.034374L314.425 32.784374L307.26874 32.784374Q307.3 34.346874 308.175 35.315624Q309.05 36.26875 310.39374 36.26875Q311.3625 36.26875 312.01874 35.878124Q312.6906 35.4875 313.1906 34.846874L314.28436 35.70625Q312.95624 37.753124 310.3 37.753124ZM310.08124 28.26875Q308.9875 28.26875 308.2375 29.065624Q307.5031 29.8625 307.33124 31.3L312.6125 31.3L312.6125 31.159374Q312.53436 29.784374 311.8625 29.034374Q311.20624 28.26875 310.08124 28.26875ZM327.40936 31.8L324.08124 31.8L324.08124 37.55L322.1906 37.55L322.1906 23.33125L326.89374 23.33125Q329.3 23.33125 330.59686 24.425Q331.89374 25.51875 331.89374 27.6125Q331.89374 28.940624 331.175 29.925Q330.45624 30.909374 329.175 31.39375L332.51874 37.425L332.51874 37.55L330.5031 37.55L327.40936 31.8ZM324.08124 30.26875L326.95624 30.26875Q328.34686 30.26875 329.175 29.55Q330.0031 28.815624 330.0031 27.6125Q330.0031 26.284374 329.20624 25.58125Q328.425 24.878124 326.9406 24.878124L324.08124 24.878124L324.08124 30.26875ZM340.4406 37.55Q340.28436 37.2375 340.1906 36.440624Q338.925 37.753124 337.175 37.753124Q335.6125 37.753124 334.6125 36.8625Q333.6125 35.971874 333.6125 34.6125Q333.6125 32.971874 334.8625 32.065624Q336.1281 31.14375 338.39374 31.14375L340.15936 31.14375L340.15936 30.315624Q340.15936 29.3625 339.58124 28.8Q339.01874 28.2375 337.925 28.2375Q336.95624 28.2375 336.3 28.7375Q335.64374 29.221874 335.64374 29.909374L333.83124 29.909374Q333.83124 29.128124 334.39374 28.39375Q334.95624 27.64375 335.90936 27.221874Q336.8781 26.784374 338.03436 26.784374Q339.8625 26.784374 340.89374 27.70625Q341.925 28.6125 341.97186 30.221874L341.97186 35.08125Q341.97186 36.534374 342.33124 37.39375L342.33124 37.55L340.4406 37.55ZM337.4406 36.175Q338.3 36.175 339.05 35.7375Q339.8156 35.3 340.15936 34.596874L340.15936 32.425L338.7375 32.425Q335.425 32.425 335.425 34.3625Q335.425 35.221874 335.9875 35.70625Q336.55 36.175 337.4406 36.175ZM346.6281 26.9875L346.6906 28.315624Q347.89374 26.784374 349.84686 26.784374Q353.20624 26.784374 353.22186 30.565624L353.22186 37.55L351.425 37.55L351.425 30.55Q351.40936 29.409374 350.89374 28.8625Q350.39374 28.315624 349.3 28.315624Q348.425 28.315624 347.7531 28.784374Q347.09686 29.253124 346.72186 30.01875L346.72186 37.55L344.925 37.55L344.925 26.9875L346.6281 26.9875ZM355.4875 32.175Q355.4875 29.70625 356.6281 28.253124Q357.76874 26.784374 359.65936 26.784374Q361.59686 26.784374 362.675 28.159374L362.76874 26.9875L364.40936 26.9875L364.40936 37.3Q364.40936 39.346874 363.1906 40.51875Q361.9875 41.70625 359.925 41.70625Q358.78436 41.70625 357.6906 41.221874Q356.59686 40.7375 356.01874 39.878124L356.95624 38.8Q358.1281 40.2375 359.8 40.2375Q361.1281 40.2375 361.8625 39.4875Q362.59686 38.753124 362.59686 37.409374L362.59686 36.4875Q361.51874 37.753124 359.64374 37.753124Q357.78436 37.753124 356.6281 36.253124Q355.4875 34.753124 355.4875 32.175ZM357.3 32.378124Q357.3 34.175 358.03436 35.190624Q358.76874 36.20625 360.08124 36.20625Q361.8 36.20625 362.59686 34.659374L362.59686 29.83125Q361.76874 28.315624 360.1125 28.315624Q358.78436 28.315624 358.03436 29.346874Q357.3 30.378124 357.3 32.378124ZM371.3 37.753124Q369.15936 37.753124 367.8 36.346874Q366.45624 34.925 366.45624 32.565624L366.45624 32.221874Q366.45624 30.659374 367.05 29.425Q367.65936 28.190624 368.7375 27.4875Q369.8156 26.784374 371.08124 26.784374Q373.14374 26.784374 374.28436 28.14375Q375.425 29.503124 375.425 32.034374L375.425 32.784374L368.26874 32.784374Q368.3 34.346874 369.175 35.315624Q370.05 36.26875 371.39374 36.26875Q372.3625 36.26875 373.01874 35.878124Q373.6906 35.4875 374.1906 34.846874L375.28436 35.70625Q373.95624 37.753124 371.3 37.753124ZM371.08124 28.26875Q369.9875 28.26875 369.2375 29.065624Q368.5031 29.8625 368.33124 31.3L373.6125 31.3L373.6125 31.159374Q373.53436 29.784374 372.8625 29.034374Q372.20624 28.26875 371.08124 28.26875Z" fill-rule="nonzero"/></svg>